<svg width="14" height="14" viewBox="0 0 14 14" fill="none" xmlns="http://www.w3.org/2000/svg">
<path d="M5.5 8.05834C5.5 8.64034 5.95001 9.10834 6.50201 9.10834H7.62999C8.10999 9.10834 8.5 8.70034 8.5 8.19034C8.5 7.64434 8.26001 7.44634 7.90601 7.32034L6.1 6.69034C5.746 6.56434 5.50601 6.37234 5.50601 5.82034C5.50601 5.31634 5.89599 4.90234 6.37599 4.90234H7.504C8.056 4.90234 8.50601 5.37034 8.50601 5.95234" stroke="#7D7656" stroke-linecap="round" stroke-linejoin="round"/>
<path d="M7 4.30859V9.70859" stroke="#7D7656" stroke-linecap="round" stroke-linejoin="round"/>
<path d="M13 7C13 10.312 10.312 13 7 13C3.688 13 1 10.312 1 7C1 3.688 3.688 1 7 1" stroke="#7D7656" stroke-width="1.5" stroke-linecap="round" stroke-linejoin="round"/>
<path d="M12.9938 3.4V1H10.5938" stroke="#7D7656" stroke-width="1.5" stroke-linecap="round" stroke-linejoin="round"/>
<path d="M10 4L13 1" stroke="#7D7656" stroke-width="1.5" stroke-linecap="round" stroke-linejoin="round"/>
</svg>
